<svg xmlns="http://www.w3.org/2000/svg" viewBox="0 0 64 64"><title>Sea Turtle</title><g id="Layer_2" data-name="Layer 2"><path d="M45.45,50.79a1.34,1.34,0,0,0-2,.15,22.94,22.94,0,0,1-3,3.38l0,0a8.27,8.27,0,0,0,5,1.65,3,3,0,0,0,2.2-1,1.57,1.57,0,0,0-.08-2.16Z"/><path d="M16.39,55a3,3,0,0,0,2.2,1,8.27,8.27,0,0,0,5-1.65l0,0a22.94,22.94,0,0,1-3-3.38,1.34,1.34,0,0,0-2-.15l-2.09,2.09A1.57,1.57,0,0,0,16.39,55Z"/><path d="M8.64,14.31,5.08,18.75a4.54,4.54,0,0,0-1,2.84A3.45,3.45,0,0,0,8.4,24.92a6.69,6.69,0,0,1,3.2,0,3.36,3.36,0,0,0,3.85-2,13.34,13.34,0,0,1,4.14-5.39,1.2,1.2,0,0,0,.13-1.79L17.9,13.88A6.18,6.18,0,0,0,13.47,12h0A6.18,6.18,0,0,0,8.64,14.31Z"/><path d="M35.94,9.3,35.86,8A4.58,4.58,0,0,0,34,4.65a3.33,3.33,0,0,0-4,0A4.58,4.58,0,0,0,28.14,8L28.06,9.3a2.42,2.42,0,0,0,.41,1.52,1.16,1.16,0,0,1,.13.89l-.31,1.47a.79.79,0,0,0,.84,1Q30.51,14,32,14t2.87.14a.79.79,0,0,0,.84-1l-.31-1.47a1.16,1.16,0,0,1,.13-.89A2.42,2.42,0,0,0,35.94,9.3Z"/><path d="M32,56c3.57,0,6.47-14.2,6.47-25.25S35.57,16,32,16s-6.47,3.7-6.47,14.75S28.43,56,32,56Z"/><path d="M40.67,17.64a1.4,1.4,0,0,0-1.86,1.77c1.28,3.24,1.66,7.48,1.66,11.34A79.16,79.16,0,0,1,38.52,48a37.77,37.77,0,0,1-1.36,4.6.79.79,0,0,0,1.25.89C44.05,48.88,48,38.95,48,30.75,48,23.7,45.08,19.65,40.67,17.64Z"/><path d="M23.33,17.64c-.41.19-.8.4-1.18.62h0l-.05,0A12.29,12.29,0,0,0,21,19l-.11.08a11.49,11.49,0,0,0-1,.83l0,0C17.47,22.28,16,25.76,16,30.75c0,8.2,3.95,18.13,9.59,22.71a.79.79,0,0,0,1.25-.89A37.76,37.76,0,0,1,25.48,48a79.16,79.16,0,0,1-1.95-17.23c0-3.86.38-8.1,1.66-11.34A1.4,1.4,0,0,0,23.33,17.64Z"/><path d="M55.49,14.38a6.16,6.16,0,0,0-9.31-.5L44.32,15.8a1.2,1.2,0,0,0,.12,1.78,13.35,13.35,0,0,1,4.1,5.36,3.37,3.37,0,0,0,3.89,2,6.69,6.69,0,0,1,3.27,0A3.45,3.45,0,0,0,60,21.6h0a4.54,4.54,0,0,0-1-2.84Z"/></g></svg>